<svg xmlns="http://www.w3.org/2000/svg" xmlns:xlink="http://www.w3.org/1999/xlink" viewBox="0 0 600 600"><symbol id="BlueSkyButterfly" transform-origin="300 300" viewBox="0 0 600 600"><path stroke-width=".5%" d="m135.72 44.03c66.496 49.921 138.02 151.14 164.28 205.46 26.262-54.316 97.782-155.54 164.28-205.46 47.98-36.021 125.72-63.892 125.72 24.795 0 17.712-10.155 148.79-16.111 170.07-20.703 73.984-96.144 92.854-163.25 81.433 117.3 19.964 147.14 86.092 82.697 152.22-122.39 125.59-175.91-31.511-189.63-71.766-2.514-7.3797-3.6904-10.832-3.7077-7.8964-0.0174-2.9357-1.1937 0.51669-3.7077 7.8964-13.714 40.255-67.233 197.36-189.63 71.766-64.444-66.128-34.605-132.26 82.697-152.22-67.108 11.421-142.55-7.4491-163.25-81.433-5.9562-21.282-16.111-152.36-16.111-170.07 0-88.687 77.742-60.816 125.72-24.795z"/></symbol><use fill="transparent" stroke="#1185fe" href="#BlueSkyButterfly" transform="scale(1 1)" transform-origin="300 300"/><use fill="transparent" stroke="red" class="red-stroke" href="#BlueSkyButterfly" transform="scale(.9 .9)" transform-origin="300 300"><animateTransform additive="sum" attributeName="transform" dur="4.2s" repeatCount="indefinite" type="scale" values=".9; 1.0; .9"/></use><use fill="transparent" stroke="orange" class="brightYellow-stroke" href="#BlueSkyButterfly" transform="scale(.8 .8)" transform-origin="300 300"><animateTransform additive="sum" attributeName="transform" dur="4.2s" repeatCount="indefinite" type="scale" values=".8; .9; .8"/></use><use fill="transparent" stroke="#ff0" class="yellow-stroke" href="#BlueSkyButterfly" transform="scale(.7 .7)" transform-origin="300 300"><animateTransform additive="sum" attributeName="transform" dur="4.2s" repeatCount="indefinite" type="scale" values=".7; .8; .7"/></use><use fill="transparent" stroke="green" class="green-stroke" href="#BlueSkyButterfly" transform="scale(.6 .6)" transform-origin="300 300"><animateTransform additive="sum" attributeName="transform" dur="4.2s" repeatCount="indefinite" type="scale" values=".6; .7; .6"/></use><use fill="transparent" stroke="#00f" class="blue-stroke" href="#BlueSkyButterfly" transform="scale(.5 .5)" transform-origin="300 300"><animateTransform additive="sum" attributeName="transform" dur="4.2s" repeatCount="indefinite" type="scale" values=".5; .6; .5"/></use><use fill="transparent" stroke="indigo" class="purple-stroke" href="#BlueSkyButterfly" transform="scale(.4 .4)" transform-origin="300 300"><animateTransform additive="sum" attributeName="transform" dur="4.2s" repeatCount="indefinite" type="scale" values=".4; .5; .4"/></use><use fill="transparent" stroke="violet" class="brightPurple-stroke" href="#BlueSkyButterfly" transform="scale(.3 .3)" transform-origin="300 300"><animateTransform additive="sum" attributeName="transform" dur="4.2s" repeatCount="indefinite" type="scale" values=".3; .4; .3"/></use><use fill="transparent" stroke="#1185fe" href="#BlueSkyButterfly" transform="scale(.2 .2)" transform-origin="300 300"><animateTransform additive="sum" attributeName="transform" dur="4.2s" repeatCount="indefinite" type="scale" values=".2; .3; .2"/></use></svg>